<?xml version="1.0" encoding="UTF-8"?>
<svg id="Layer_2" data-name="Layer 2" xmlns="http://www.w3.org/2000/svg" viewBox="0 0 450.94 321.32">
  <g id="Layer_1-2" data-name="Layer 1">
    <g id="Group_1" data-name="Group 1">
      <path id="Path_1" data-name="Path 1" d="m132.07,36.87c0,7.87-.15,15.75.06,23.62.3,3.64-1.59,7.12-4.81,8.84-2.55,1.5-5.22,2.8-7.83,4.18-35.41,18.72-54.48,47.99-54.99,88.09-.57,44.57,33.33,85.21,77.1,93.96,56.07,11.22,108.46-26.6,115.43-83.32,1.28-10.4,4.25-13.03,14.61-13.02,13.22.02,26.45.02,39.67.01,8.13,0,11.26,3.39,10.52,11.66-1.56,17.39-4.85,34.46-11.7,50.55-22.19,52.13-61.43,84.49-116.54,96.29C106.63,336.38,17.17,280.82,1.78,182.88-10.66,103.79,43.47,23.47,121.4,5.1c7.7-1.82,10.85.66,10.87,8.59.03,7.73,0,15.45,0,23.17h-.21" style="fill: #191a34; stroke-width: 0px;"/>
    </g>
    <g id="Group_3" data-name="Group 3">
      <path id="Path_2" data-name="Path 2" d="m319.57,284.47c0-8.17.12-16.34-.05-24.51-.22-3.19,1.45-6.21,4.27-7.71,2.67-1.6,5.39-3.12,8.16-4.54,34.84-17.87,53.81-46.81,54.74-85.45.97-40.42-19.11-70.27-54.64-88.57-55.43-28.54-125.08,6.45-136.56,67.8-.76,4.08-1.26,8.21-1.76,12.34-.72,5.98-3.23,8.7-9.16,8.76-15.45.15-30.91.15-46.36,0-6.62-.07-9.22-3.17-8.7-10.59,2.98-42.46,18.52-79.2,50.3-108.25C204.64,21.05,233.62,6.12,267.06,1.68c58.15-7.72,106.82,11.3,145.38,55.21,28.75,32.73,41.33,71.38,37.97,114.78-4.92,63.35-46.83,125.16-117.7,143.5-12.21,3.16-13.4,2.39-13.48-10.2-.03-3.42-.09-6.83-.11-10.25s0-6.83,0-10.25h.46" style="fill: #191a34; stroke-width: 0px;"/>
    </g>
  </g>
</svg>